<?xml version="1.0" standalone="no"?>
<!DOCTYPE svg PUBLIC "-//W3C//DTD SVG 20010904//EN"
 "http://www.w3.org/TR/2001/REC-SVG-20010904/DTD/svg10.dtd">
<svg version="1.0" xmlns="http://www.w3.org/2000/svg"
 width="162.000000pt" height="162.000000pt" viewBox="0 0 162.000000 162.000000"
 preserveAspectRatio="xMidYMid meet">
<metadata>
Created by potrace 1.11, written by Peter Selinger 2001-2013
</metadata>
<g transform="translate(0.000000,162.000000) scale(0.100000,-0.100000)"
fill="#000000" stroke="none">
<path d="M130 1594 c0 -3 57 -106 128 -227 70 -121 126 -225 124 -230 -1 -5
-44 -79 -94 -165 l-91 -156 31 -58 32 -57 -107 -3 -108 -3 -3 -307 -2 -308 55
0 c52 0 55 -1 45 -19 -5 -11 -10 -24 -10 -30 0 -8 138 -11 449 -11 l448 0 49
82 49 83 5 260 6 260 2 -313 2 -312 203 2 202 3 3 42 c3 40 5 43 33 43 l29 0
0 265 0 265 -95 0 -94 0 31 58 31 57 -228 393 -227 392 -449 0 c-247 0 -449
-3 -449 -6z m792 -836 l-29 -53 -152 -3 -151 -3 0 -104 0 -105 -35 0 -35 0 0
60 c0 60 0 60 -29 60 l-29 0 56 100 57 99 188 1 189 0 -30 -52z m-540 -190 c3
-40 5 -43 36 -46 l32 -3 0 -129 0 -129 -32 -3 c-31 -3 -33 -6 -36 -45 l-3 -43
-135 0 -134 0 0 220 0 220 134 0 135 0 3 -42z m618 -3 l0 -45 -106 0 -105 0 3
-42 3 -43 103 0 102 0 0 -48 0 -48 -102 2 -103 2 -3 -42 -3 -41 105 0 106 0 0
-45 0 -45 -170 0 -170 0 0 220 0 220 170 0 170 0 0 -45z m340 -130 l0 -175 35
0 35 0 0 175 0 175 65 0 65 0 0 -175 0 -175 -30 0 c-29 0 -30 -2 -30 -45 l0
-45 -140 0 -140 0 0 220 0 220 70 0 70 0 0 -175z"/>
<path d="M250 390 l0 -130 35 0 35 0 0 130 0 130 -35 0 -35 0 0 -130z"/>
</g>
</svg>
